<svg viewBox="0 0 355 53" fill="none" xmlns="http://www.w3.org/2000/svg">
<path d="M38.184 26.224V25.224H37.184V26.224H38.184ZM47.04 26.224H48.04V25.224H47.04V26.224ZM47.04 46.312L47.6629 47.0943L48.04 46.794V46.312H47.04ZM37.968 51.064L37.6637 50.1114L37.6637 50.1114L37.968 51.064ZM13.416 49.408L12.9364 50.2855L12.9443 50.2898L13.416 49.408ZM3.696 40.12L2.83758 40.633L2.83758 40.633L3.696 40.12ZM3.696 13.48L2.83758 12.967L2.83758 12.967L3.696 13.48ZM13.416 4.264L13.8877 5.14579L13.8913 5.14382L13.416 4.264ZM38.976 2.968L39.3496 2.04041L39.3496 2.04041L38.976 2.968ZM47.688 9.088L48.3863 9.80378L49.0643 9.14233L48.4406 8.42949L47.688 9.088ZM41.784 14.848L41.0769 15.5551L41.7753 16.2535L42.4823 15.5638L41.784 14.848ZM18.384 11.32L17.9126 10.438L17.9062 10.4415L18.384 11.32ZM11.904 17.584L11.0424 17.0763L11.0358 17.0879L11.904 17.584ZM11.904 35.872L11.0357 36.3682L11.0425 36.3797L11.904 35.872ZM18.384 42.208L17.8945 43.08L17.9009 43.0836L18.384 42.208ZM38.184 41.92L38.6861 42.7848L39.184 42.4957V41.92H38.184ZM38.184 27.224H47.04V25.224H38.184V27.224ZM46.04 26.224V46.312H48.04V26.224H46.04ZM46.4171 45.5297C43.9287 47.5112 41.015 49.0409 37.6637 50.1114L38.2723 52.0166C41.833 50.8791 44.9673 49.2408 47.6629 47.0943L46.4171 45.5297ZM37.6637 50.1114C34.3066 51.1838 30.8573 51.72 27.312 51.72V53.72C31.0627 53.72 34.7174 53.1522 38.2723 52.0166L37.6637 50.1114ZM27.312 51.72C22.3242 51.72 17.8568 50.6493 13.8877 48.5262L12.9443 50.2898C17.2312 52.5827 22.0278 53.72 27.312 53.72V51.72ZM13.8956 48.5305C9.91984 46.3577 6.81245 43.3858 4.55442 39.607L2.83758 40.633C5.28355 44.7262 8.65616 47.9463 12.9364 50.2855L13.8956 48.5305ZM4.55442 39.607C2.30231 35.8382 1.168 31.578 1.168 26.8H-0.832C-0.832 31.91 0.385693 36.5298 2.83758 40.633L4.55442 39.607ZM1.168 26.8C1.168 22.022 2.30231 17.7618 4.55442 13.993L2.83758 12.967C0.385693 17.0702 -0.832 21.69 -0.832 26.8H1.168ZM4.55442 13.993C6.81131 10.2161 9.91612 7.27009 13.8877 5.14578L12.9443 3.38221C8.65989 5.6739 5.28469 8.87189 2.83758 12.967L4.55442 13.993ZM13.8913 5.14382C17.9081 2.97382 22.4223 1.88 27.456 1.88V-0.120003C22.1217 -0.120003 17.2759 1.04218 12.9407 3.38418L13.8913 5.14382ZM27.456 1.88C31.569 1.88 35.28 2.55738 38.6024 3.89558L39.3496 2.04041C35.76 0.59461 31.791 -0.120003 27.456 -0.120003V1.88ZM38.6024 3.89558C41.9192 5.23151 44.6914 7.18187 46.9354 9.7465L48.4406 8.42949C45.9806 5.61813 42.9448 3.48849 39.3496 2.04041L38.6024 3.89558ZM46.9897 8.37222L41.0857 14.1322L42.4823 15.5638L48.3863 9.80378L46.9897 8.37222ZM42.4911 14.1409C38.4638 10.1136 33.5776 8.088 27.888 8.088V10.088C33.0464 10.088 37.4242 11.9024 41.0769 15.5551L42.4911 14.1409ZM27.888 8.088C24.1924 8.088 20.859 8.86327 17.9126 10.4381L18.8554 12.2019C21.477 10.8007 24.4796 10.088 27.888 10.088V8.088ZM17.9062 10.4415C15.0108 12.0162 12.7183 14.2325 11.0425 17.0763L12.7655 18.0917C14.2577 15.5595 16.2852 13.5998 18.8618 12.1985L17.9062 10.4415ZM11.0358 17.0879C9.4037 19.944 8.6 23.1907 8.6 26.8H10.6C10.6 23.4973 11.3323 20.6 12.7722 18.0801L11.0358 17.0879ZM8.6 26.8C8.6 30.3187 9.40613 33.5163 11.0358 36.3681L12.7722 35.3759C11.3299 32.8517 10.6 30.0013 10.6 26.8H8.6ZM11.0425 36.3797C12.7167 39.2207 15.0054 41.458 17.8945 43.08L18.8735 41.336C16.2906 39.886 14.2593 37.8993 12.7655 35.3643L11.0425 36.3797ZM17.9009 43.0836C20.8476 44.7093 24.1607 45.512 27.816 45.512V43.512C24.4633 43.512 21.4884 42.7787 18.8671 41.3324L17.9009 43.0836ZM27.816 45.512C31.9026 45.512 35.5368 44.6135 38.6861 42.7848L37.6819 41.0552C34.8792 42.6825 31.6014 43.512 27.816 43.512V45.512ZM39.184 41.92V26.224H37.184V41.92H39.184ZM64.7852 46.888L64.0737 47.5908L64.0781 47.5951L64.7852 46.888ZM58.9532 1.6V0.599997H57.9532V1.6H58.9532ZM68.3132 1.6H69.3132V0.599997H68.3132V1.6ZM93.8732 1.6V0.599997H92.8732V1.6H93.8732ZM103.089 1.6H104.089V0.599997H103.089V1.6ZM97.2572 46.888L96.5458 46.1852L96.5457 46.1853L97.2572 46.888ZM81.0572 51.72C74.2883 51.72 69.1461 49.8347 65.4923 46.1809L64.0781 47.5951C68.2002 51.7173 73.9061 53.72 81.0572 53.72V51.72ZM65.4966 46.1852C61.8467 42.4902 59.9532 37.1597 59.9532 30.04H57.9532C57.9532 37.5123 59.9477 43.4138 64.0738 47.5908L65.4966 46.1852ZM59.9532 30.04V1.6H57.9532V30.04H59.9532ZM58.9532 2.6H68.3132V0.599997H58.9532V2.6ZM67.3132 1.6V29.68H69.3132V1.6H67.3132ZM67.3132 29.68C67.3132 34.7453 68.4042 38.7309 70.7605 41.4578C73.141 44.2127 76.6619 45.512 81.1292 45.512V43.512C77.0525 43.512 74.1654 42.3393 72.2738 40.1502C70.3581 37.9331 69.3132 34.5027 69.3132 29.68H67.3132ZM81.1292 45.512C85.5743 45.512 89.0778 44.2116 91.4457 41.4557C93.7886 38.7289 94.8732 34.7441 94.8732 29.68H92.8732C92.8732 34.5039 91.8338 37.9351 89.9287 40.1523C88.0486 42.3404 85.1801 43.512 81.1292 43.512V45.512ZM94.8732 29.68V1.6H92.8732V29.68H94.8732ZM93.8732 2.6H103.089V0.599997H93.8732V2.6ZM102.089 1.6V30.04H104.089V1.6H102.089ZM102.089 30.04C102.089 37.1597 100.196 42.4902 96.5458 46.1852L97.9686 47.5908C102.095 43.4138 104.089 37.5123 104.089 30.04H102.089ZM96.5457 46.1853C92.9415 49.8345 87.8268 51.72 81.0572 51.72V53.72C88.2076 53.72 93.8929 51.7175 97.9687 47.5907L96.5457 46.1853ZM120.518 51.064L120.224 52.0201L120.228 52.0211L120.518 51.064ZM111.95 46.672L111.036 46.265L110.734 46.9434L111.296 47.4288L111.95 46.672ZM115.19 39.4L115.81 38.6156L114.8 37.8172L114.276 38.993L115.19 39.4ZM122.75 43.432L122.415 44.3744L122.424 44.3776L122.433 44.3807L122.75 43.432ZM140.174 43.144L139.634 42.3021L139.624 42.3086L140.174 43.144ZM141.398 34.864L140.708 35.5881L140.726 35.6049L140.744 35.6208L141.398 34.864ZM137.51 32.632L137.826 31.6833L137.826 31.6833L137.51 32.632ZM131.03 30.832L131.268 29.8608L131.261 29.8591L131.03 30.832ZM121.67 28.096L121.308 29.0284L121.314 29.0308L121.67 28.096ZM115.55 23.848L114.789 24.4973L114.798 24.5072L114.806 24.517L115.55 23.848ZM115.262 8.368L114.43 7.81329L114.427 7.8174L115.262 8.368ZM122.102 2.896L121.701 1.97982L121.696 1.98219L122.102 2.896ZM142.406 2.032L142.156 3.00028L142.156 3.00028L142.406 2.032ZM150.11 5.344L151.036 5.72013L151.343 4.96439L150.664 4.51195L150.11 5.344ZM147.158 12.616L146.651 13.4784L147.649 14.064L148.084 12.9921L147.158 12.616ZM140.246 9.664L139.976 10.627L139.976 10.627L140.246 9.664ZM124.982 10.528L124.417 9.70263L124.407 9.70981L124.982 10.528ZM123.83 19.024L123.159 19.7655L123.167 19.7733L123.176 19.7808L123.83 19.024ZM127.79 21.184L128.106 20.2353L128.106 20.2353L127.79 21.184ZM134.27 22.984L134.031 23.9552L134.045 23.9584L134.27 22.984ZM143.486 25.72L143.114 26.6485L143.122 26.6517L143.13 26.6548L143.486 25.72ZM149.606 29.968L148.853 30.6266L148.862 30.637L149.606 29.968ZM149.894 45.304L149.067 44.7412L149.063 44.7473L149.059 44.7534L149.894 45.304ZM143.054 50.704L142.653 49.7878L142.653 49.7878L143.054 50.704ZM131.822 51.72C128.03 51.72 124.36 51.1819 120.807 50.1069L120.228 52.0211C123.972 53.1541 127.838 53.72 131.822 53.72V51.72ZM120.811 50.1079C117.3 49.0312 114.58 47.6227 112.603 45.9152L111.296 47.4288C113.543 49.3693 116.536 50.8888 120.224 52.0201L120.811 50.1079ZM112.863 47.079L116.103 39.807L114.276 38.993L111.036 46.265L112.863 47.079ZM114.569 40.1844C116.735 41.8964 119.356 43.2889 122.415 44.3744L123.084 42.4896C120.191 41.4631 117.773 40.1676 115.81 38.6156L114.569 40.1844ZM122.433 44.3807C125.554 45.4208 128.685 45.944 131.822 45.944V43.944C128.911 43.944 125.993 43.4592 123.066 42.4833L122.433 44.3807ZM131.822 45.944C135.637 45.944 138.657 45.339 140.723 43.9794L139.624 42.3086C138.043 43.349 135.494 43.944 131.822 43.944V45.944ZM140.713 43.9859C142.828 42.6302 143.982 40.7498 143.982 38.392H141.982C141.982 39.9702 141.263 41.2578 139.634 42.3021L140.713 43.9859ZM143.982 38.392C143.982 36.672 143.335 35.216 142.051 34.1072L140.744 35.6208C141.572 36.336 141.982 37.232 141.982 38.392H143.982ZM142.087 34.1399C140.954 33.0603 139.522 32.2487 137.826 31.6833L137.193 33.5807C138.665 34.0713 139.826 34.7477 140.708 35.5881L142.087 34.1399ZM137.826 31.6833C136.205 31.143 134.015 30.5356 131.268 29.8609L130.791 31.8031C133.516 32.4724 135.646 33.065 137.193 33.5807L137.826 31.6833ZM131.261 29.8591C127.443 28.9524 124.369 28.052 122.025 27.1612L121.314 29.0308C123.77 29.964 126.936 30.8876 130.799 31.8049L131.261 29.8591ZM122.031 27.1636C119.829 26.3097 117.919 24.9854 116.293 23.179L114.806 24.517C116.637 26.5506 118.806 28.0583 121.308 29.0284L122.031 27.1636ZM116.31 23.1987C114.824 21.4577 114.03 19.0702 114.03 15.928H112.03C112.03 19.4098 112.915 22.3023 114.789 24.4973L116.31 23.1987ZM114.03 15.928C114.03 13.3335 114.72 11.006 116.096 8.91859L114.427 7.8174C112.828 10.2419 112.03 12.9545 112.03 15.928H114.03ZM116.094 8.9227C117.506 6.80477 119.623 5.09204 122.508 3.80981L121.696 1.98219C118.533 3.38796 116.09 5.32323 114.43 7.8133L116.094 8.9227ZM122.503 3.81215C125.415 2.538 129.014 1.88 133.334 1.88V-0.120003C128.821 -0.120003 124.933 0.565993 121.701 1.97984L122.503 3.81215ZM133.334 1.88C136.321 1.88 139.261 2.25333 142.156 3.00028L142.656 1.06372C139.598 0.274667 136.49 -0.120003 133.334 -0.120003V1.88ZM142.156 3.00028C145.043 3.74529 147.504 4.80846 149.555 6.17605L150.664 4.51195C148.396 2.99953 145.721 1.85471 142.656 1.06372L142.156 3.00028ZM149.183 4.96787L146.231 12.2399L148.084 12.9921L151.036 5.72013L149.183 4.96787ZM147.664 11.7536C145.384 10.4152 143 9.39686 140.515 8.70104L139.976 10.627C142.291 11.2751 144.516 12.2248 146.651 13.4784L147.664 11.7536ZM140.515 8.70104C138.037 8.007 135.618 7.656 133.262 7.656V9.656C135.418 9.656 137.655 9.97699 139.976 10.627L140.515 8.70104ZM133.262 7.656C129.486 7.656 126.485 8.28741 124.417 9.70269L125.546 11.3533C127.126 10.2726 129.645 9.656 133.262 9.656V7.656ZM124.407 9.70981C122.381 11.1336 121.318 13.0869 121.318 15.496H123.318C123.318 13.7771 124.031 12.4184 125.557 11.3462L124.407 9.70981ZM121.318 15.496C121.318 17.1996 121.928 18.6516 123.159 19.7655L124.501 18.2825C123.716 17.5724 123.318 16.6723 123.318 15.496H121.318ZM123.176 19.7808C124.348 20.7932 125.789 21.5713 127.473 22.1327L128.106 20.2353C126.622 19.7407 125.423 19.0788 124.483 18.2672L123.176 19.7808ZM127.473 22.1327C129.094 22.673 131.284 23.2804 134.031 23.9551L134.508 22.0129C131.783 21.3436 129.653 20.751 128.106 20.2353L127.473 22.1327ZM134.045 23.9584C137.76 24.8158 140.779 25.7143 143.114 26.6485L143.857 24.7915C141.393 23.8057 138.267 22.8802 134.495 22.0096L134.045 23.9584ZM143.13 26.6548C145.378 27.509 147.282 28.8306 148.853 30.6265L150.358 29.3095C148.57 27.2654 146.393 25.755 143.841 24.7852L143.13 26.6548ZM148.862 30.637C150.385 32.3287 151.198 34.6596 151.198 37.744H153.198C153.198 34.3004 152.282 31.4473 150.349 29.299L148.862 30.637ZM151.198 37.744C151.198 40.3315 150.488 42.6547 149.067 44.7412L150.72 45.8668C152.372 43.4413 153.198 40.7245 153.198 37.744H151.198ZM149.059 44.7534C147.7 46.8133 145.591 48.5026 142.653 49.7878L143.455 51.6202C146.661 50.2174 149.111 48.3067 150.728 45.8546L149.059 44.7534ZM142.653 49.7878C139.741 51.062 136.141 51.72 131.822 51.72V53.72C136.334 53.72 140.223 53.034 143.455 51.6202L142.653 49.7878ZM171 9.52H172V8.52H171V9.52ZM154.296 9.52H153.296V10.52H154.296V9.52ZM154.296 1.6V0.599997H153.296V1.6H154.296ZM197.064 1.6H198.064V0.599997H197.064V1.6ZM197.064 9.52V10.52H198.064V9.52H197.064ZM180.36 9.52V8.52H179.36V9.52H180.36ZM180.36 52V53H181.36V52H180.36ZM171 52H170V53H171V52ZM171 8.52H154.296V10.52H171V8.52ZM155.296 9.52V1.6H153.296V9.52H155.296ZM154.296 2.6H197.064V0.599997H154.296V2.6ZM196.064 1.6V9.52H198.064V1.6H196.064ZM197.064 8.52H180.36V10.52H197.064V8.52ZM179.36 9.52V52H181.36V9.52H179.36ZM180.36 51H171V53H180.36V51ZM172 52V9.52H170V52H172ZM234.245 40.336L235.163 39.9393L234.902 39.336H234.245V40.336ZM209.045 40.336V39.336H208.384L208.125 39.9441L209.045 40.336ZM204.077 52V53H204.738L204.997 52.3919L204.077 52ZM194.429 52L193.517 51.5896L192.882 53H194.429V52ZM217.109 1.6V0.599997H216.462L216.197 1.18963L217.109 1.6ZM226.325 1.6L227.236 1.18855L226.971 0.599997H226.325V1.6ZM249.077 52V53H250.626L249.988 51.5886L249.077 52ZM239.285 52L238.367 52.3967L238.628 53H239.285V52ZM231.149 32.992V33.992H232.67L232.067 32.5959L231.149 32.992ZM221.645 10.96L222.563 10.5639L221.642 8.42723L220.726 10.5664L221.645 10.96ZM212.213 32.992L211.294 32.5984L210.697 33.992H212.213V32.992ZM234.245 39.336H209.045V41.336H234.245V39.336ZM208.125 39.9441L203.157 51.6081L204.997 52.3919L209.965 40.7279L208.125 39.9441ZM204.077 51H194.429V53H204.077V51ZM195.341 52.4104L218.021 2.01036L216.197 1.18963L193.517 51.5896L195.341 52.4104ZM217.109 2.6H226.325V0.599997H217.109V2.6ZM225.414 2.01144L248.166 52.4114L249.988 51.5886L227.236 1.18855L225.414 2.01144ZM249.077 51H239.285V53H249.077V51ZM240.203 51.6033L235.163 39.9393L233.327 40.7327L238.367 52.3967L240.203 51.6033ZM232.067 32.5959L222.563 10.5639L220.727 11.3561L230.231 33.3881L232.067 32.5959ZM220.726 10.5664L211.294 32.5984L213.132 33.3856L222.564 11.3536L220.726 10.5664ZM212.213 33.992H231.149V31.992H212.213V33.992ZM298.895 1.6L299.812 1.99944L300.421 0.599997H298.895V1.6ZM276.935 52V53H277.59L277.852 52.3994L276.935 52ZM267.719 52L266.803 52.4005L267.065 53H267.719V52ZM245.687 1.6V0.599997H244.158L244.771 2.00054L245.687 1.6ZM255.839 1.6L256.757 1.20382L256.497 0.599997H255.839V1.6ZM272.615 40.48L271.697 40.8762L272.611 42.995L273.532 40.879L272.615 40.48ZM289.535 1.6V0.599997H288.879L288.618 1.20096L289.535 1.6ZM297.978 1.20055L276.018 51.6006L277.852 52.3994L299.812 1.99944L297.978 1.20055ZM276.935 51H267.719V53H276.935V51ZM268.635 51.5995L246.603 1.19945L244.771 2.00054L266.803 52.4005L268.635 51.5995ZM245.687 2.6H255.839V0.599997H245.687V2.6ZM254.921 1.99617L271.697 40.8762L273.533 40.0838L256.757 1.20382L254.921 1.99617ZM273.532 40.879L290.452 1.99903L288.618 1.20096L271.698 40.081L273.532 40.879ZM289.535 2.6H298.895V0.599997H289.535V2.6ZM313.299 49.408L312.819 50.2855L312.827 50.2898L313.299 49.408ZM303.579 40.12L302.718 40.6284L302.72 40.633L303.579 40.12ZM303.579 13.552L304.437 14.065L304.44 14.0604L303.579 13.552ZM313.299 4.264L313.77 5.14582L313.778 5.1415L313.299 4.264ZM341.091 4.264L340.611 5.14154L340.619 5.14578L341.091 4.264ZM350.811 13.48L349.952 13.993L349.952 13.993L350.811 13.48ZM350.811 40.12L349.952 39.607L349.952 39.607L350.811 40.12ZM341.091 49.408L341.562 50.2898L341.57 50.2855L341.091 49.408ZM336.267 42.28L336.751 43.155L336.763 43.1482L336.267 42.28ZM342.603 35.944L343.471 36.4402L343.475 36.4335L342.603 35.944ZM342.603 17.728L341.731 18.2175L341.735 18.2241L342.603 17.728ZM336.267 11.392L335.771 12.2603L335.783 12.2669L336.267 11.392ZM318.123 11.392L318.607 12.267L318.619 12.2602L318.123 11.392ZM311.787 17.728L312.655 18.2242L312.659 18.2175L311.787 17.728ZM311.787 35.944L310.915 36.4335L310.919 36.4401L311.787 35.944ZM318.123 42.28L317.627 43.1483L317.638 43.1549L318.123 42.28ZM327.195 51.72C322.207 51.72 317.74 50.6493 313.77 48.5262L312.827 50.2898C317.114 52.5827 321.911 53.72 327.195 53.72V51.72ZM313.778 48.5305C309.803 46.3577 306.695 43.3858 304.437 39.607L302.72 40.633C305.166 44.7262 308.539 47.9463 312.819 50.2855L313.778 48.5305ZM304.44 39.6116C302.184 35.7907 301.051 31.528 301.051 26.8H299.051C299.051 31.864 300.269 36.4813 302.718 40.6284L304.44 39.6116ZM301.051 26.8C301.051 22.0719 302.184 17.8353 304.437 14.065L302.72 13.039C300.269 17.1407 299.051 21.7361 299.051 26.8H301.051ZM304.44 14.0604C306.698 10.2361 309.802 7.26843 313.77 5.14578L312.827 3.38221C308.54 5.67556 305.164 8.89985 302.718 13.0436L304.44 14.0604ZM313.778 5.1415C317.746 2.97311 322.211 1.88 327.195 1.88V-0.120003C321.907 -0.120003 317.108 1.04289 312.819 3.38649L313.778 5.1415ZM327.195 1.88C332.179 1.88 336.644 2.97311 340.611 5.1415L341.57 3.38649C337.282 1.04289 332.483 -0.120003 327.195 -0.120003V1.88ZM340.619 5.14578C344.591 7.27009 347.696 10.2161 349.952 13.993L351.669 12.967C349.222 8.87189 345.847 5.6739 341.562 3.38221L340.619 5.14578ZM349.952 13.993C352.205 17.7618 353.339 22.022 353.339 26.8H355.339C355.339 21.69 354.121 17.0702 351.669 12.967L349.952 13.993ZM353.339 26.8C353.339 31.578 352.205 35.8382 349.952 39.607L351.669 40.633C354.121 36.5298 355.339 31.91 355.339 26.8H353.339ZM349.952 39.607C347.694 43.3858 344.587 46.3577 340.611 48.5305L341.57 50.2855C345.851 47.9463 349.223 44.7262 351.669 40.633L349.952 39.607ZM340.619 48.5262C336.65 50.6493 332.183 51.72 327.195 51.72V53.72C332.479 53.72 337.276 52.5827 341.562 50.2898L340.619 48.5262ZM327.195 45.512C330.708 45.512 333.901 44.7325 336.751 43.1549L335.783 41.4051C333.256 42.8035 330.402 43.512 327.195 43.512V45.512ZM336.763 43.1482C339.606 41.5237 341.846 39.2832 343.471 36.4401L341.735 35.4479C340.287 37.9808 338.304 39.9643 335.771 41.4118L336.763 43.1482ZM343.475 36.4335C345.101 33.5375 345.907 30.3189 345.907 26.8H343.907C343.907 30.0011 343.177 32.8785 341.731 35.4545L343.475 36.4335ZM345.907 26.8C345.907 23.2813 345.101 20.0837 343.471 17.2319L341.735 18.2241C343.177 20.7483 343.907 23.5987 343.907 26.8H345.907ZM343.475 17.2385C341.85 14.3441 339.605 12.0971 336.751 10.5171L335.783 12.2669C338.304 13.6629 340.284 15.6399 341.731 18.2175L343.475 17.2385ZM336.763 10.5238C333.911 8.89413 330.714 8.088 327.195 8.088V10.088C330.396 10.088 333.247 10.8179 335.771 12.2602L336.763 10.5238ZM327.195 8.088C323.676 8.088 320.479 8.89413 317.627 10.5238L318.619 12.2602C321.143 10.8179 323.994 10.088 327.195 10.088V8.088ZM317.638 10.5171C314.784 12.0971 312.54 14.3441 310.915 17.2385L312.659 18.2175C314.106 15.6399 316.085 13.6629 318.607 12.2669L317.638 10.5171ZM310.919 17.2319C309.289 20.0837 308.483 23.2813 308.483 26.8H310.483C310.483 23.5987 311.213 20.7483 312.655 18.2241L310.919 17.2319ZM308.483 26.8C308.483 30.3189 309.289 33.5375 310.915 36.4335L312.659 35.4545C311.213 32.8785 310.483 30.0011 310.483 26.8H308.483ZM310.919 36.4401C312.543 39.2832 314.784 41.5237 317.627 43.1482L318.619 41.4118C316.086 39.9643 314.102 37.9808 312.655 35.4479L310.919 36.4401ZM317.638 43.1549C320.488 44.7325 323.682 45.512 327.195 45.512V43.512C323.988 43.512 321.133 42.8035 318.607 41.4051L317.638 43.1549Z" fill="currentcolor"/>
</svg>
