<svg viewBox="0 0 237 53" fill="none" xmlns="http://www.w3.org/2000/svg">
<path d="M16.992 9.52H17.992V8.52H16.992V9.52ZM0.288 9.52H-0.712V10.52H0.288V9.52ZM0.288 1.6V0.599997H-0.712V1.6H0.288ZM43.056 1.6H44.056V0.599997H43.056V1.6ZM43.056 9.52V10.52H44.056V9.52H43.056ZM26.352 9.52V8.52H25.352V9.52H26.352ZM26.352 52V53H27.352V52H26.352ZM16.992 52H15.992V53H16.992V52ZM16.992 8.52H0.288V10.52H16.992V8.52ZM1.288 9.52V1.6H-0.712V9.52H1.288ZM0.288 2.6H43.056V0.599997H0.288V2.6ZM42.056 1.6V9.52H44.056V1.6H42.056ZM43.056 8.52H26.352V10.52H43.056V8.52ZM25.352 9.52V52H27.352V9.52H25.352ZM26.352 51H16.992V53H26.352V51ZM17.992 52V9.52H15.992V52H17.992ZM59.0254 49.408L58.5458 50.2855L58.5537 50.2898L59.0254 49.408ZM49.3054 40.12L48.4442 40.6284L48.447 40.633L49.3054 40.12ZM49.3054 13.552L50.1638 14.065L50.1665 14.0604L49.3054 13.552ZM59.0254 4.264L59.497 5.14582L59.5049 5.1415L59.0254 4.264ZM86.8174 4.264L86.3378 5.14154L86.3457 5.14578L86.8174 4.264ZM96.5374 13.48L95.679 13.993L95.679 13.993L96.5374 13.48ZM96.5374 40.12L95.679 39.607L95.679 39.607L96.5374 40.12ZM86.8174 49.408L87.289 50.2898L87.2969 50.2855L86.8174 49.408ZM81.9934 42.28L82.4777 43.155L82.4895 43.1482L81.9934 42.28ZM88.3294 35.944L89.1976 36.4402L89.2014 36.4335L88.3294 35.944ZM88.3294 17.728L87.4574 18.2175L87.4611 18.2241L88.3294 17.728ZM81.9934 11.392L81.4972 12.2603L81.5091 12.2669L81.9934 11.392ZM63.8494 11.392L64.3337 12.267L64.3455 12.2602L63.8494 11.392ZM57.5134 17.728L58.3816 18.2242L58.3854 18.2175L57.5134 17.728ZM57.5134 35.944L56.6414 36.4335L56.6451 36.4401L57.5134 35.944ZM63.8494 42.28L63.3532 43.1483L63.3651 43.1549L63.8494 42.28ZM72.9214 51.72C67.9336 51.72 63.4662 50.6493 59.497 48.5262L58.5537 50.2898C62.8406 52.5827 67.6371 53.72 72.9214 53.72V51.72ZM59.5049 48.5305C55.5292 46.3577 52.4218 43.3858 50.1638 39.607L48.447 40.633C50.8929 44.7262 54.2655 47.9463 58.5458 50.2855L59.5049 48.5305ZM50.1665 39.6116C47.9108 35.7907 46.7774 31.528 46.7774 26.8H44.7774C44.7774 31.864 45.996 36.4813 48.4442 40.6284L50.1665 39.6116ZM46.7774 26.8C46.7774 22.0719 47.9108 17.8353 50.1638 14.065L48.447 13.039C45.996 17.1407 44.7774 21.7361 44.7774 26.8H46.7774ZM50.1665 14.0604C52.4242 10.2361 55.5286 7.26843 59.497 5.14578L58.5537 3.38221C54.2662 5.67556 50.8906 8.89985 48.4442 13.0436L50.1665 14.0604ZM59.5049 5.1415C63.4726 2.97311 67.9372 1.88 72.9214 1.88V-0.120003C67.6335 -0.120003 62.8341 1.04289 58.5458 3.38649L59.5049 5.1415ZM72.9214 1.88C77.9055 1.88 82.3701 2.97311 86.3378 5.1415L87.2969 3.38649C83.0086 1.04289 78.2092 -0.120003 72.9214 -0.120003V1.88ZM86.3457 5.14578C90.3173 7.27009 93.4221 10.2161 95.679 13.993L97.3958 12.967C94.9487 8.87189 91.5735 5.6739 87.289 3.38221L86.3457 5.14578ZM95.679 13.993C97.9311 17.7618 99.0654 22.022 99.0654 26.8H101.065C101.065 21.69 99.8477 17.0702 97.3958 12.967L95.679 13.993ZM99.0654 26.8C99.0654 31.578 97.9311 35.8382 95.679 39.607L97.3958 40.633C99.8477 36.5298 101.065 31.91 101.065 26.8H99.0654ZM95.679 39.607C93.4209 43.3858 90.3135 46.3577 86.3378 48.5305L87.2969 50.2855C91.5772 47.9463 94.9498 44.7262 97.3958 40.633L95.679 39.607ZM86.3457 48.5262C82.3766 50.6493 77.9091 51.72 72.9214 51.72V53.72C78.2056 53.72 83.0022 52.5827 87.289 50.2898L86.3457 48.5262ZM72.9214 45.512C76.4345 45.512 79.6279 44.7325 82.4777 43.1549L81.5091 41.4051C78.9829 42.8035 76.1282 43.512 72.9214 43.512V45.512ZM82.4895 43.1482C85.3325 41.5237 87.573 39.2832 89.1976 36.4401L87.4611 35.4479C86.0137 37.9808 84.0302 39.9643 81.4972 41.4118L82.4895 43.1482ZM89.2014 36.4335C90.8272 33.5375 91.6334 30.3189 91.6334 26.8H89.6334C89.6334 30.0011 88.9035 32.8785 87.4574 35.4545L89.2014 36.4335ZM91.6334 26.8C91.6334 23.2813 90.8272 20.0837 89.1976 17.2319L87.4611 18.2241C88.9035 20.7483 89.6334 23.5987 89.6334 26.8H91.6334ZM89.2014 17.2385C87.5765 14.3441 85.3318 12.0971 82.4777 10.5171L81.5091 12.2669C84.031 13.6629 86.0103 15.6399 87.4574 18.2175L89.2014 17.2385ZM82.4895 10.5238C79.6377 8.89413 76.4401 8.088 72.9214 8.088V10.088C76.1226 10.088 78.9731 10.8179 81.4972 12.2602L82.4895 10.5238ZM72.9214 8.088C69.4026 8.088 66.2051 8.89413 63.3532 10.5238L64.3455 12.2602C66.8697 10.8179 69.7201 10.088 72.9214 10.088V8.088ZM63.3651 10.5171C60.511 12.0971 58.2663 14.3441 56.6414 17.2385L58.3854 18.2175C59.8325 15.6399 61.8118 13.6629 64.3337 12.2669L63.3651 10.5171ZM56.6451 17.2319C55.0155 20.0837 54.2094 23.2813 54.2094 26.8H56.2094C56.2094 23.5987 56.9392 20.7483 58.3816 18.2241L56.6451 17.2319ZM54.2094 26.8C54.2094 30.3189 55.0155 33.5375 56.6414 36.4335L58.3854 35.4545C56.9392 32.8785 56.2094 30.0011 56.2094 26.8H54.2094ZM56.6451 36.4401C58.2697 39.2832 60.5102 41.5237 63.3532 43.1482L64.3455 41.4118C61.8125 39.9643 59.829 37.9808 58.3816 35.4479L56.6451 36.4401ZM63.3651 43.1549C66.2149 44.7325 69.4082 45.512 72.9214 45.512V43.512C69.7145 43.512 66.8599 42.8035 64.3337 41.4051L63.3651 43.1549ZM154.771 1.6H155.771V0.599997H154.771V1.6ZM154.771 52V53H155.771V52H154.771ZM147.067 52L146.291 52.6315L146.591 53H147.067V52ZM119.275 17.872L120.05 17.2405L118.275 15.0604V17.872H119.275ZM119.275 52V53H120.275V52H119.275ZM109.987 52H108.987V53H109.987V52ZM109.987 1.6V0.599997H108.987V1.6H109.987ZM117.691 1.6L118.466 0.968542L118.166 0.599997H117.691V1.6ZM145.483 35.728L144.707 36.3595L146.483 38.5396V35.728H145.483ZM145.483 1.6V0.599997H144.483V1.6H145.483ZM153.771 1.6V52H155.771V1.6H153.771ZM154.771 51H147.067V53H154.771V51ZM147.842 51.3685L120.05 17.2405L118.499 18.5035L146.291 52.6315L147.842 51.3685ZM118.275 17.872V52H120.275V17.872H118.275ZM119.275 51H109.987V53H119.275V51ZM110.987 52V1.6H108.987V52H110.987ZM109.987 2.6H117.691V0.599997H109.987V2.6ZM116.915 2.23145L144.707 36.3595L146.258 35.0965L118.466 0.968542L116.915 2.23145ZM146.483 35.728V1.6H144.483V35.728H146.483ZM145.483 2.6H154.771V0.599997H145.483V2.6ZM168.276 1.6V0.599997H167.276V1.6H168.276ZM177.636 1.6H178.636V0.599997H177.636V1.6ZM177.636 52V53H178.636V52H177.636ZM168.276 52H167.276V53H168.276V52ZM168.276 2.6H177.636V0.599997H168.276V2.6ZM176.636 1.6V52H178.636V1.6H176.636ZM177.636 51H168.276V53H177.636V51ZM169.276 52V1.6H167.276V52H169.276ZM236.052 1.6H237.052V0.599997H236.052V1.6ZM236.052 52V53H237.052V52H236.052ZM228.348 52L227.573 52.6315L227.873 53H228.348V52ZM200.556 17.872L201.331 17.2405L199.556 15.0604V17.872H200.556ZM200.556 52V53H201.556V52H200.556ZM191.268 52H190.268V53H191.268V52ZM191.268 1.6V0.599997H190.268V1.6H191.268ZM198.972 1.6L199.747 0.968542L199.447 0.599997H198.972V1.6ZM226.764 35.728L225.989 36.3595L227.764 38.5396V35.728H226.764ZM226.764 1.6V0.599997H225.764V1.6H226.764ZM235.052 1.6V52H237.052V1.6H235.052ZM236.052 51H228.348V53H236.052V51ZM229.123 51.3685L201.331 17.2405L199.781 18.5035L227.573 52.6315L229.123 51.3685ZM199.556 17.872V52H201.556V17.872H199.556ZM200.556 51H191.268V53H200.556V51ZM192.268 52V1.6H190.268V52H192.268ZM191.268 2.6H198.972V0.599997H191.268V2.6ZM198.197 2.23145L225.989 36.3595L227.539 35.0965L199.747 0.968542L198.197 2.23145ZM227.764 35.728V1.6H225.764V35.728H227.764ZM226.764 2.6H236.052V0.599997H226.764V2.6Z" fill="currentcolor"/>
</svg>
